<svg width="192" height="163" viewBox="0 0 192 163" fill="none" xmlns="http://www.w3.org/2000/svg">
<g clip-path="url(#clip0_171_727)">
<path opacity="0.18" d="M30.6064 34.4196C24.9327 35.8198 19.0352 37.3394 14.4804 41.521C10.6342 45.0487 4.64109 51.5612 2.82522 56.8527C-4.86718 79.2043 3.82989 106.402 20.7112 120.312C28.6507 126.855 38.5459 130.021 45.6812 137.722C50.1941 142.593 53.355 149.041 58.1569 153.518C65.1733 160.055 74.6466 161.501 83.6117 162.202C89.8403 162.693 96.3112 162.904 102.09 160.147C106.267 158.156 109.806 154.739 113.279 151.372L136.288 129.004C139.985 125.414 143.442 119.696 148.256 119.734C191.58 120.095 194.501 60.7412 128.009 34.4522C122.148 32.1348 118.13 25.6928 112.624 22.3904C101.251 15.5658 88.1619 17.7773 76.6909 22.4989C62.1266 28.5095 45.7208 30.6776 30.6064 34.4196Z" fill="#68E1FD"/>
<path opacity="0.05" d="M181.604 130.171C183.417 130.206 185.753 130.732 186.033 132.816C186.184 133.902 185.65 134.957 185.072 135.834C181.457 141.334 175.466 144.116 169.555 144.862C163.643 145.608 157.685 144.563 151.783 143.717C143.254 142.49 134.692 141.676 126.095 141.274C119.983 140.987 113.554 140.808 108.29 137.182C107.314 136.512 106.353 135.674 105.885 134.469C104.952 132.073 106.426 129.156 108.449 127.992C110.472 126.827 112.85 126.941 115.106 127.083C137.265 128.472 159.408 130.171 181.604 130.171Z" fill="#000405"/>
<path d="M181.68 34.7995C181.68 34.7995 173.795 46.6714 172.298 48.6604C169.568 52.2749 167.809 57.0155 167.809 57.0155L163.846 76.6454L159.417 75.2696L149.787 72.2847C149.787 72.2847 153.209 61.5553 151.552 58.299C149.342 53.9573 151.254 51.2437 151.757 49.3795C152.689 45.9251 147.927 39.6107 147.927 39.6107L144.876 23.701L149.482 22.9846L152.825 35.8822L158.552 41.8331L162.631 42.0854C162.631 42.0854 165.708 42.8235 167.946 41.6187C170.086 40.4627 177.645 30.5392 177.645 30.5392L180.729 33.7955L181.68 34.7995ZM143.901 54.9315V125.636C143.901 126.522 143.751 127.399 143.459 128.218C143.168 129.036 142.741 129.779 142.203 130.405C141.664 131.032 141.025 131.528 140.322 131.867C139.619 132.206 138.865 132.38 138.104 132.379H47.2663C46.5051 132.379 45.7513 132.205 45.0481 131.866C44.3449 131.526 43.7059 131.029 43.1678 130.403C42.6296 129.776 42.2028 129.032 41.9118 128.213C41.6207 127.394 41.471 126.517 41.4713 125.631V54.9315C41.4707 54.0452 41.6202 53.1676 41.9111 52.3486C42.2021 51.5297 42.6289 50.7856 43.1671 50.1588C43.7053 49.532 44.3444 49.0349 45.0477 48.6958C45.7511 48.3568 46.505 48.1825 47.2663 48.1828H138.104C138.866 48.1828 139.619 48.3574 140.323 48.6965C141.026 49.0357 141.665 49.5328 142.203 50.1594C142.742 50.7861 143.169 51.5301 143.46 52.3489C143.752 53.1676 143.901 54.0452 143.901 54.9315Z" fill="#68E1FD"/>
<path d="M142.33 50.3401H42.8864L43.6929 49.621C43.7301 49.5834 43.769 49.5481 43.8094 49.5152L91.1154 7.30294L92.6096 5.97058L140.738 48.9209L142.33 50.3401Z" fill="#68E1FD"/>
<path d="M143.901 54.9314L142.692 55.949L133.883 63.3761L91.1153 99.4367L49.9842 62.562L41.4713 54.9314L41.5809 53.6208C41.7882 52.392 42.2873 51.2554 43.0214 50.3401C43.2275 50.0789 43.4521 49.8384 43.6928 49.621C43.73 49.5834 43.7689 49.5481 43.8093 49.5152C44.8078 48.6481 46.0206 48.1807 47.2663 48.1828H138.104C139.545 48.1837 140.933 48.8085 142 49.9356C143.066 51.0626 143.734 52.6113 143.873 54.2802C143.892 54.4966 143.902 54.714 143.901 54.9314Z" fill="#68E1FD"/>
<path opacity="0.61" d="M43.6929 49.6156C43.4533 49.8345 43.2288 50.0749 43.0216 50.3347H42.8864L43.6929 49.6156Z" fill="url(#paint0_linear_171_727)"/>
<path opacity="0.61" d="M143.901 54.9315L142.692 55.9518L133.883 63.3761L91.1153 99.4367L49.9842 62.5648L41.4713 54.9315L41.5809 53.6235C41.7883 52.394 42.2873 51.2566 43.0214 50.3401C43.2287 50.0804 43.4532 49.8399 43.6928 49.621L43.8093 49.5179L91.1153 7.30294L92.6095 5.97058L140.738 48.9209C141.606 49.4354 142.349 50.1966 142.897 51.1339C143.445 52.0711 143.781 53.1543 143.873 54.2829C143.892 54.4984 143.902 54.7149 143.901 54.9315Z" fill="url(#paint1_linear_171_727)"/>
<path d="M133.883 49.7078V63.3788L118.099 76.6753L114.479 79.7362L91.1153 99.4367L69.1407 79.7362L65.7397 76.6861L49.9843 62.5756V49.7078C49.9843 48.6449 50.347 47.6254 50.9927 46.8738C51.6383 46.1222 52.5141 45.6999 53.4272 45.6999H130.442C131.355 45.7006 132.23 46.1232 132.875 46.8747C133.52 47.6263 133.883 48.6453 133.883 49.7078Z" fill="white"/>
<path d="M122.316 61.6937H60.0776C59.7302 61.6937 59.397 61.533 59.1513 61.247C58.9056 60.961 58.7676 60.5731 58.7676 60.1686C58.7676 59.9684 58.8015 59.7701 58.8673 59.585C58.9331 59.4 59.0296 59.2319 59.1513 59.0903C59.2729 58.9487 59.4173 58.8363 59.5763 58.7597C59.7352 58.6831 59.9056 58.6436 60.0776 58.6436H122.316C122.488 58.6436 122.659 58.6831 122.817 58.7597C122.976 58.8363 123.121 58.9487 123.242 59.0903C123.364 59.2319 123.461 59.4 123.526 59.585C123.592 59.7701 123.626 59.9684 123.626 60.1686C123.626 60.5731 123.488 60.961 123.242 61.247C122.997 61.533 122.664 61.6937 122.316 61.6937Z" fill="url(#paint2_linear_171_727)"/>
<path d="M122.316 70.7163H60.0776C59.7302 70.7163 59.397 70.5556 59.1513 70.2696C58.9056 69.9836 58.7676 69.5957 58.7676 69.1913C58.7676 68.7868 58.9056 68.3989 59.1513 68.1129C59.397 67.8269 59.7302 67.6663 60.0776 67.6663H122.316C122.664 67.6663 122.997 67.8269 123.242 68.1129C123.488 68.3989 123.626 68.7868 123.626 69.1913C123.626 69.5957 123.488 69.9836 123.242 70.2696C122.997 70.5556 122.664 70.7163 122.316 70.7163Z" fill="url(#paint3_linear_171_727)"/>
<path d="M118.099 76.6862L114.479 79.7362H69.1407L65.7374 76.6862H118.099Z" fill="url(#paint4_linear_171_727)"/>
<path opacity="0.05" d="M91.1154 99.4367L53.1522 132.385H129.862L91.1154 99.4367Z" fill="#000405"/>
<path d="M58.369 24.9764C56.4576 20.2032 49.278 20.9874 49.278 20.9874C53.707 17.9455 52.8585 10.22 52.8049 9.7641C54.742 16.4992 61.4297 15.0121 62.0288 14.8656C57.5881 16.141 58.369 24.9764 58.369 24.9764ZM45.9213 34.7696C44.7069 31.7359 40.1404 32.2352 40.1404 32.2352C43.0309 30.2353 42.3758 25.0876 42.3758 25.0876V25.1175C43.6159 29.3751 47.8584 28.4307 48.236 28.3385C45.4248 29.1525 45.9213 34.7696 45.9213 34.7696Z" fill="#68E1FD"/>
<path d="M168.198 25.6548C168.761 25.1281 169.473 24.8666 170.193 24.9221C170.721 24.8972 171.237 25.1045 171.638 25.5028C171.948 25.9075 172.144 26.4118 172.203 26.9491C172.316 27.6153 172.359 28.2951 172.331 28.9735C172.28 30.219 172.002 31.5378 172.464 32.6639C172.574 32.9315 172.722 33.1755 172.902 33.3857C173.11 33.6577 173.401 33.8258 173.713 33.8552C173.868 33.8632 174.021 33.8064 174.143 33.6949C174.265 33.5834 174.349 33.4246 174.38 33.2473C174.225 33.6495 173.992 34.0049 173.7 34.2861C173.409 34.5673 173.065 34.7668 172.697 34.8693C172.329 34.9718 171.945 34.9745 171.576 34.8772C171.206 34.78 170.861 34.5854 170.566 34.3083L170.972 35.2662C170.636 35.1652 170.311 35.0214 170.002 34.8375C169.011 34.2107 168.457 32.938 168.193 31.6518C167.96 30.4714 167.913 29.253 167.694 28.0671C167.524 27.1581 167.566 26.3115 168.198 25.6548Z" fill="#3F3D56"/>
<path d="M167.899 26.9573C168.101 26.9497 168.301 26.9856 168.492 27.0631C168.649 27.1393 168.786 27.2644 168.886 27.4246C168.987 27.5849 169.048 27.7743 169.063 27.9721C169.071 28.171 169.03 28.3684 168.944 28.5405C168.858 28.7125 168.731 28.8516 168.578 28.9409C168.379 29.0363 168.164 29.0798 167.948 29.0684C167.753 29.0684 167.554 29.0684 167.359 29.0467C167.303 29.0469 167.247 29.031 167.198 29.0006C167.148 28.9528 167.11 28.8899 167.088 28.8188C166.961 28.5231 166.865 28.2106 166.802 27.888C166.641 26.8894 167.219 26.9491 167.899 26.9573Z" fill="#68E1FD"/>
<path d="M164.107 36.4846C164.107 36.4846 164.07 37.2688 164.023 38.2891C163.983 39.1493 163.934 40.1886 163.895 41.0516C163.827 42.5112 163.288 43.8873 162.387 44.9048C161.86 45.5317 160.603 46.7012 159.645 46.286C159.179 46.0852 159.163 45.4014 159.261 44.9917C159.476 44.2446 159.597 43.4647 159.617 42.677C159.633 42.0393 159.583 41.4017 159.47 40.7775C158.869 39.0327 164.107 36.4846 164.107 36.4846Z" fill="url(#paint5_linear_171_727)"/>
<path d="M164.107 36.4846C164.107 36.4846 164.07 37.2688 164.023 38.2891C163.655 39.2443 163.31 40.0231 163.121 40.4112C162.741 41.1954 161.179 42.43 159.624 42.677C159.64 42.0393 159.59 41.4017 159.477 40.7775C158.869 39.0327 164.107 36.4846 164.107 36.4846Z" fill="url(#paint6_linear_171_727)"/>
<path d="M159.545 26.0943C158.859 26.1429 158.188 26.3555 157.575 26.7189C156.963 27.0823 156.421 27.5887 155.983 28.2065C155.546 28.8244 155.222 29.5404 155.033 30.3101C154.844 31.0797 154.793 31.8865 154.883 32.6802C155.039 35.051 155.562 37.3695 156.426 39.5238C158.058 42.7801 162.193 40.1018 162.848 38.7613C163.503 37.4208 166.016 31.375 164.96 29.6627C164.233 28.5067 162.216 25.9695 159.545 26.0943Z" fill="url(#paint7_linear_171_727)"/>
<path d="M158.077 22.7865C159.831 22.1899 161.702 22.2535 163.424 22.9683C165.119 23.7173 166.58 25.2586 167.226 27.2313C167.781 29.0595 167.728 31.0637 167.077 32.8484C166.421 34.6186 165.375 36.1564 164.046 37.3068C163.704 36.0857 164.76 35.0003 165.17 33.809C165.265 33.5889 165.286 33.3352 165.228 33.0981C165.079 32.6558 164.51 32.6069 164.186 32.8945C163.862 33.1822 163.72 33.6679 163.601 34.1211C163.916 32.1809 164.149 29.9015 162.969 28.4796C162.27 27.6384 161.214 27.3236 160.207 27.3127C159.282 27.3096 158.367 27.5273 157.517 27.9525C156.668 28.3777 155.902 29.0013 155.268 29.7848C154.897 30.2488 154.37 30.8187 153.899 30.4985C153.753 30.3818 153.638 30.219 153.568 30.029C152.177 26.8216 155.832 23.5029 158.077 22.7865Z" fill="#3F3D56"/>
<path d="M160.328 26.3711C159.163 25.7741 157.939 25.2857 156.673 25.2857C155.407 25.2857 154.095 25.785 153.258 26.8921C152.821 27.5091 152.503 28.2281 152.326 29.0006C152.185 29.4838 152.13 29.9951 152.163 30.5039C152.213 30.8729 152.291 31.236 152.396 31.5893C152.615 32.4685 152.708 33.4888 152.23 34.2269C152.142 34.3741 152.026 34.496 151.891 34.5834C151.756 34.6708 151.606 34.7215 151.452 34.7316C151.297 34.7348 151.147 34.6723 151.03 34.5559C150.912 34.4395 150.835 34.2772 150.813 34.0994C150.608 34.7751 150.944 35.5674 151.477 35.9229C151.752 36.0858 152.054 36.179 152.362 36.1964C152.67 36.2137 152.978 36.1547 153.265 36.0233C153.507 35.9346 153.731 35.7917 153.925 35.6027C154.117 35.3877 154.275 35.1351 154.391 34.8565C154.878 33.828 155.123 32.6856 155.487 31.5758C155.85 30.4659 156.377 29.4049 157.237 28.7808C157.919 28.3477 158.685 28.1262 159.461 28.1377C160.233 28.1078 161.009 28.1811 161.778 28.0997C162.547 28.0183 161.99 27.4864 161.659 27.2069C161.241 26.8758 160.795 26.5957 160.328 26.3711Z" fill="#3F3D56"/>
<path d="M191.636 16.643C191.835 16.8221 189.979 18.5045 189.979 18.5045C189.979 18.5045 189.112 20.2439 188.231 20.727C187.35 21.21 180.73 33.7928 180.73 33.7928L178.116 31.0358L183.753 22.2086C183.753 22.2086 185.618 18.0487 185.41 16.2387C185.41 16.2387 185.522 14.1004 186.084 15.0936C186.48 15.8018 186.226 16.9171 186.695 17.0365C186.747 17.0419 186.799 17.0287 186.844 16.9985C187.232 16.7239 187.589 16.3919 187.904 16.0108C188.837 14.9769 189.951 13.5387 189.951 13.5387C189.951 13.5387 190.562 13.2375 190.485 13.5387C190.408 13.8399 189.287 15.8724 189.224 15.9809C189.329 15.8697 191.049 14.0814 191.322 14.2198C191.594 14.3582 189.988 16.4178 189.895 16.5372C189.995 16.4558 191.83 14.9688 191.967 15.1017C192.226 15.3541 190.569 17.0284 190.431 17.1559C190.536 17.0908 191.448 16.4694 191.636 16.643Z" fill="url(#paint8_linear_171_727)"/>
<path d="M189.669 17.932C189.53 17.9847 189.382 17.9987 189.238 17.9727C188.768 17.931 188.296 17.922 187.825 17.9455C187.508 17.9618 186.853 18.2169 186.837 17.6443C186.837 17.4924 186.869 17.3431 186.862 17.1912C186.862 17.126 186.848 17.0609 186.839 16.9958C187.228 16.7211 187.584 16.3891 187.9 16.0081C188.043 16.0636 188.178 16.1431 188.301 16.2441C188.611 16.4775 188.918 16.7082 189.219 16.9361C189.382 17.0609 189.545 17.1857 189.702 17.3214C189.771 17.3717 189.826 17.4443 189.86 17.5304C189.875 17.6129 189.864 17.699 189.829 17.7727C189.794 17.8465 189.737 17.9031 189.669 17.932Z" fill="url(#paint9_linear_171_727)"/>
<path d="M144.151 2.51334C143.899 2.54591 144.715 5.11294 144.715 5.11294C144.715 5.11294 144.664 7.1237 145.193 8.07344C145.722 9.02319 145.647 23.5815 145.647 23.5815L149.116 23.0388L148.328 12.0732C148.328 12.0732 148.629 7.39505 149.624 5.98671C149.624 5.98671 150.496 4.10078 149.571 4.60008C148.913 4.95827 148.622 6.05998 148.172 5.87545C148.125 5.84842 148.087 5.80471 148.062 5.75063C147.851 5.28039 147.694 4.77939 147.596 4.26088C147.267 2.80912 146.978 0.904199 146.978 0.904199C146.978 0.904199 146.605 0.280078 146.545 0.581284C146.484 0.88249 146.505 3.29485 146.508 3.43324C146.468 3.27857 145.82 0.695254 145.517 0.649123C145.214 0.602993 145.654 3.33556 145.682 3.49294C145.631 3.36269 144.75 0.974751 144.568 1.00189C144.235 1.05887 144.897 3.50651 144.946 3.68832C144.881 3.56892 144.389 2.48621 144.151 2.51334Z" fill="url(#paint10_linear_171_727)"/>
<path d="M145.232 4.81726C145.327 4.94604 145.446 5.04733 145.58 5.11304C145.998 5.36687 146.403 5.64959 146.792 5.95968C147.055 6.16862 147.491 6.79274 147.769 6.30973C147.843 6.1849 147.878 6.03837 147.953 5.91083C147.987 5.85689 148.023 5.80525 148.062 5.75616C147.851 5.28592 147.694 4.78491 147.596 4.26641C147.45 4.2261 147.299 4.21146 147.149 4.22299L146.055 4.24742C145.86 4.24742 145.664 4.24742 145.468 4.27726C145.385 4.27683 145.304 4.30517 145.235 4.35867C145.187 4.42199 145.161 4.50322 145.16 4.58746C145.16 4.6717 145.185 4.75329 145.232 4.81726Z" fill="url(#paint11_linear_171_727)"/>
<path d="M131.859 130.537C130.927 132.754 130.249 134.477 130.249 134.477L118.517 135.128C118.517 135.128 120.461 129.139 123.624 130.686C124.694 131.207 128.57 130.228 128.57 130.228L128.692 129.774L131.859 130.537Z" fill="url(#paint12_linear_171_727)"/>
<path d="M173.44 131.207L171.643 132.379L156.258 113.553L154.561 88.4196L140.533 103.233C140.533 103.233 140.908 113.433 136.004 121.414C135.125 122.844 133.337 126.998 131.985 130.244C131.943 130.344 131.901 130.447 131.862 130.548L131.598 130.485L130.682 130.263L128.694 129.785L135.141 99.4476L149.792 72.2956L159.421 75.2805L163.85 76.6563C163.85 76.6563 166.839 83.6275 163.85 101.67L161.869 111.998C161.869 111.998 169.855 116.955 172.317 126.762L173.438 131.202L173.44 131.207Z" fill="#3F3D56"/>
<path d="M173.44 131.207L175.266 133.43L170.634 139.052H164.573C164.573 139.052 165.865 136.569 168.447 136.176C171.03 135.782 171.648 132.377 171.648 132.377L173.44 131.207Z" fill="url(#paint13_linear_171_727)"/>
<path opacity="0.22" d="M50.306 20.5967L49.2826 20.9874C53.7116 17.9455 52.8631 10.22 52.8095 9.7641C52.8794 10.1304 53.9097 15.2292 53.348 16.9035C52.6463 18.9957 50.306 20.5967 50.306 20.5967ZM42.9865 29.9259C42.4457 30.797 40.2965 32.1402 40.1497 32.2297C43.0401 30.2298 42.3851 25.0822 42.3851 25.0822V25.112C42.4993 25.4648 43.5133 29.0738 42.9865 29.9259Z" fill="white"/>
<path opacity="0.22" d="M41.6438 58.6436L89.1199 101.168L91.1153 99.4367L41.4713 54.9315L41.6438 58.6436Z" fill="white"/>
<path opacity="0.22" d="M92.6865 100.894L143.902 57.9815V55.0536L91.1154 99.5561L92.6865 100.894Z" fill="white"/>
<path opacity="0.22" d="M143.874 54.4023L143.734 54.8582L142.692 56.0711C143.424 54.6004 141.356 51.1867 141.356 51.1867L140.531 50.4676L138.053 48.2968L91.1154 7.42501L92.6095 6.09265L140.738 49.0403C141.606 49.5554 142.348 50.3167 142.896 51.2539C143.444 52.191 143.78 53.2739 143.874 54.4023Z" fill="white"/>
<path opacity="0.61" d="M181.681 34.7995C181.681 34.7995 173.795 46.6714 172.298 48.6604C169.569 52.2749 167.809 57.0155 167.809 57.0155L163.846 76.6454L159.417 75.2697C159.417 75.2697 163.552 57.2706 165.214 53.4499C166.876 49.6292 180.725 33.7928 180.725 33.7928L181.681 34.7995Z" fill="url(#paint14_linear_171_727)"/>
<path d="M173.438 131.202C173.356 130.93 170.725 122.421 166.774 118.852C162.762 115.227 160.431 110.223 160.431 110.223C159.487 100.617 159.422 75.2697 159.422 75.2697L163.85 76.6454C163.85 76.6454 166.839 83.6166 163.85 101.659L161.869 111.987C161.869 111.987 169.855 116.955 172.317 126.762L173.438 131.202ZM140.533 103.228C140.533 103.228 140.908 113.428 136.004 121.408C135.125 122.838 133.337 126.993 131.985 130.238L131.598 130.48L130.682 130.257L138.286 102.337C138.286 102.337 147.496 89.6353 149.181 88.4196C150.867 87.2039 154.561 88.4196 154.561 88.4196L140.533 103.228Z" fill="#25233A"/>
</g>
<defs>
<linearGradient id="paint0_linear_171_727" x1="42.9236" y1="51.1406" x2="44.0843" y2="48.4305" gradientUnits="userSpaceOnUse">
<stop offset="0.36" stop-color="#00272E"/>
<stop offset="0.75" stop-color="#3F80A1" stop-opacity="0.25"/>
<stop offset="1" stop-color="#69B9EB" stop-opacity="0"/>
</linearGradient>
<linearGradient id="paint1_linear_171_727" x1="79.9473" y1="94.6554" x2="113.994" y2="15.126" gradientUnits="userSpaceOnUse">
<stop offset="0.36" stop-color="#00272E"/>
<stop offset="0.75" stop-color="#3F80A1" stop-opacity="0.25"/>
<stop offset="1" stop-color="#69B9EB" stop-opacity="0"/>
</linearGradient>
<linearGradient id="paint2_linear_171_727" x1="91.5792" y1="38.3841" x2="88.3829" y2="172.509" gradientUnits="userSpaceOnUse">
<stop stop-color="#68E1FD"/>
<stop offset="0.01" stop-color="#67DDF9"/>
<stop offset="0.12" stop-color="#5CB3CE"/>
<stop offset="0.24" stop-color="#538EA9"/>
<stop offset="0.37" stop-color="#4C718B"/>
<stop offset="0.5" stop-color="#465A73"/>
<stop offset="0.63" stop-color="#424A63"/>
<stop offset="0.79" stop-color="#404059"/>
<stop offset="0.99" stop-color="#3F3D56"/>
</linearGradient>
<linearGradient id="paint3_linear_171_727" x1="91.7377" y1="38.3868" x2="88.5414" y2="172.515" gradientUnits="userSpaceOnUse">
<stop stop-color="#68E1FD"/>
<stop offset="0.01" stop-color="#67DDF9"/>
<stop offset="0.12" stop-color="#5CB3CE"/>
<stop offset="0.24" stop-color="#538EA9"/>
<stop offset="0.37" stop-color="#4C718B"/>
<stop offset="0.5" stop-color="#465A73"/>
<stop offset="0.63" stop-color="#424A63"/>
<stop offset="0.79" stop-color="#404059"/>
<stop offset="0.99" stop-color="#3F3D56"/>
</linearGradient>
<linearGradient id="paint4_linear_171_727" x1="92.5909" y1="38.4059" x2="89.3946" y2="172.534" gradientUnits="userSpaceOnUse">
<stop stop-color="#68E1FD"/>
<stop offset="0.01" stop-color="#67DDF9"/>
<stop offset="0.12" stop-color="#5CB3CE"/>
<stop offset="0.24" stop-color="#538EA9"/>
<stop offset="0.37" stop-color="#4C718B"/>
<stop offset="0.5" stop-color="#465A73"/>
<stop offset="0.63" stop-color="#424A63"/>
<stop offset="0.79" stop-color="#404059"/>
<stop offset="0.99" stop-color="#3F3D56"/>
</linearGradient>
<linearGradient id="paint5_linear_171_727" x1="159.214" y1="41.4287" x2="164.107" y2="41.4287" gradientUnits="userSpaceOnUse">
<stop stop-color="#ECC4D7"/>
<stop offset="0.42" stop-color="#EFD4D1"/>
<stop offset="1" stop-color="#F2EAC9"/>
</linearGradient>
<linearGradient id="paint6_linear_171_727" x1="161.806" y1="38.2593" x2="160.442" y2="51.3968" gradientUnits="userSpaceOnUse">
<stop stop-color="#ECC4D7"/>
<stop offset="0.42" stop-color="#EFD4D1"/>
<stop offset="1" stop-color="#F2EAC9"/>
</linearGradient>
<linearGradient id="paint7_linear_171_727" x1="154.843" y1="33.5811" x2="165.219" y2="33.5811" gradientUnits="userSpaceOnUse">
<stop stop-color="#ECC4D7"/>
<stop offset="0.42" stop-color="#EFD4D1"/>
<stop offset="1" stop-color="#F2EAC9"/>
</linearGradient>
<linearGradient id="paint8_linear_171_727" x1="178.116" y1="23.5979" x2="192" y2="23.5979" gradientUnits="userSpaceOnUse">
<stop stop-color="#ECC4D7"/>
<stop offset="0.42" stop-color="#EFD4D1"/>
<stop offset="1" stop-color="#F2EAC9"/>
</linearGradient>
<linearGradient id="paint9_linear_171_727" x1="188.807" y1="21.6848" x2="186.916" y2="9.0747" gradientUnits="userSpaceOnUse">
<stop stop-color="#ECC4D7"/>
<stop offset="0.42" stop-color="#EFD4D1"/>
<stop offset="1" stop-color="#F2EAC9"/>
</linearGradient>
<linearGradient id="paint10_linear_171_727" x1="152.608" y1="16.7752" x2="139.901" y2="9.9542" gradientUnits="userSpaceOnUse">
<stop stop-color="#ECC4D7"/>
<stop offset="0.42" stop-color="#EFD4D1"/>
<stop offset="1" stop-color="#F2EAC9"/>
</linearGradient>
<linearGradient id="paint11_linear_171_727" x1="144.376" y1="8.63343" x2="152.634" y2="-0.0217238" gradientUnits="userSpaceOnUse">
<stop stop-color="#ECC4D7"/>
<stop offset="0.42" stop-color="#EFD4D1"/>
<stop offset="1" stop-color="#F2EAC9"/>
</linearGradient>
<linearGradient id="paint12_linear_171_727" x1="124.207" y1="128.068" x2="126.596" y2="136.618" gradientUnits="userSpaceOnUse">
<stop stop-color="#68E1FD"/>
<stop offset="0.01" stop-color="#67DDF9"/>
<stop offset="0.12" stop-color="#5CB3CE"/>
<stop offset="0.24" stop-color="#538EA9"/>
<stop offset="0.37" stop-color="#4C718B"/>
<stop offset="0.5" stop-color="#465A73"/>
<stop offset="0.63" stop-color="#424A63"/>
<stop offset="0.79" stop-color="#404059"/>
<stop offset="0.99" stop-color="#3F3D56"/>
</linearGradient>
<linearGradient id="paint13_linear_171_727" x1="168.506" y1="133.942" x2="172.13" y2="138.298" gradientUnits="userSpaceOnUse">
<stop stop-color="#68E1FD"/>
<stop offset="0.01" stop-color="#67DDF9"/>
<stop offset="0.12" stop-color="#5CB3CE"/>
<stop offset="0.24" stop-color="#538EA9"/>
<stop offset="0.37" stop-color="#4C718B"/>
<stop offset="0.5" stop-color="#465A73"/>
<stop offset="0.63" stop-color="#424A63"/>
<stop offset="0.79" stop-color="#404059"/>
<stop offset="0.99" stop-color="#3F3D56"/>
</linearGradient>
<linearGradient id="paint14_linear_171_727" x1="179.466" y1="60.8308" x2="160.562" y2="51.4728" gradientUnits="userSpaceOnUse">
<stop/>
<stop offset="0.98" stop-opacity="0"/>
</linearGradient>
<clipPath id="clip0_171_727">
<rect width="192" height="162" fill="white" transform="translate(0 0.5)"/>
</clipPath>
</defs>
</svg>
